<svg xmlns="http://www.w3.org/2000/svg" viewBox="0 0 48 48"><defs><style>.cls-4{fill:#ffde91}.cls-6{fill:#f2cac1}.cls-7{fill:#ffcdbe}.cls-8{fill:#e9edf5}.cls-12{fill:#190402}</style></defs><g id="_23-laptop" data-name="23-laptop"><path style="fill:#b5efff" d="M4 13h40v30H4z"/><path style="fill:#80dbff" d="M4 13h40v4H4z"/><path d="M27 1H3a2 2 0 0 0-2 2v16a2 2 0 0 0 2 2h9l5 5v-5h10a2 2 0 0 0 2-2V3a2 2 0 0 0-2-2z" style="fill:#ff8257"/><path class="cls-4" d="M30 35v4H20v-2a4 4 0 0 1 4-4h4a2.006 2.006 0 0 0 2 2zM40 37v2H30v-4a2.015 2.015 0 0 0 2-2h4a4 4 0 0 1 4 4z"/><path d="M37 20v1l-2 2c-7 0-7-3-7-3a2.938 2.938 0 0 1-3 3l-2-2v-1a7 7 0 0 1 14 0z" style="fill:#414952"/><path class="cls-6" d="M23 25a2.006 2.006 0 0 1 2-2v4a2.006 2.006 0 0 1-2-2zM35 27v-4a2 2 0 0 1 0 4z"/><path class="cls-7" d="M32 33a2.015 2.015 0 0 1-2 2 2.006 2.006 0 0 1-2-2v-1.41l2 .41a5.106 5.106 0 0 0 2-.41z"/><path class="cls-7" d="M32 31.59a5.106 5.106 0 0 1-2 .41l-2-.41-1.54-1.05A5.022 5.022 0 0 1 25 27v-4a2.938 2.938 0 0 0 3-3s0 3 7 3v4a5.029 5.029 0 0 1-3 4.59z"/><circle class="cls-8" cx="15" cy="11" r="2"/><circle class="cls-8" cx="23" cy="11" r="2"/><circle class="cls-8" cx="7" cy="11" r="2"/><path d="M44 43h3a4 4 0 0 1-4 4H5a3.995 3.995 0 0 1-4-4h43z" style="fill:#cdd2e1"/><path d="M28 20a2.938 2.938 0 0 1-3 3v4a2.938 2.938 0 0 0 3-3s0 3 7 3v-4c-7 0-7-3-7-3z" style="fill:#ffbeaa"/><path class="cls-8" d="M4 39h40v4H4z"/><path d="M4 19V3a2 2 0 0 1 2-2H3a2 2 0 0 0-2 2v16a2 2 0 0 0 2 2h3a2 2 0 0 1-2-2z" style="fill:#f05e3a"/><path class="cls-12" d="M47 42h-2V13a1 1 0 0 0-1-1h-7v2h6v24h-2v-1a5.006 5.006 0 0 0-5-5h-2.695a6.027 6.027 0 0 0 2.633-4.165 2.975 2.975 0 0 0 .861-5.22l.908-.908A1 1 0 0 0 38 21v-1a8 8 0 0 0-16 0v1a1 1 0 0 0 .293.707l.908.908a2.975 2.975 0 0 0 .864 5.221 5.989 5.989 0 0 0 1.684 3.407 1.009 1.009 0 0 0 .147.123l.93.634H24a5.006 5.006 0 0 0-5 5v1H5V24H3v18H1a1 1 0 0 0-1 1 4.995 4.995 0 0 0 5 5h38a5.006 5.006 0 0 0 5-5 1 1 0 0 0-1-1zm-8-5v1h-8v-2.181a2.844 2.844 0 0 0 1.107-.692A2.917 2.917 0 0 0 32.818 34H36a3 3 0 0 1 3 3zm-9.2-4.021A.973.973 0 0 0 30 33a6.075 6.075 0 0 0 1-.09V33a.977.977 0 0 1-.307.713A.959.959 0 0 1 30 34a1 1 0 0 1-1-1v-.184zm-4.424-11.017L24 20.586V20a6 6 0 0 1 12 0v.586l-1.4 1.405C29.315 21.9 29 20 29 20a1 1 0 0 0-2 0 1.8 1.8 0 0 1-1.624 1.962zM26 23.874a3.963 3.963 0 0 0 2.313-1.523c.983.788 2.7 1.5 5.687 1.628V27a4.027 4.027 0 0 1-2.392 3.67A4.113 4.113 0 0 1 30.1 31l-1.7-.349-1.29-.879A4.01 4.01 0 0 1 26 27zM21 37a3 3 0 0 1 3-3h3.184A3 3 0 0 0 29 35.816V38h-8zm-1 3h23v2H5v-2zm23 6H5a3.01 3.01 0 0 1-2.118-.872A3.065 3.065 0 0 1 2.172 44h43.657A3.006 3.006 0 0 1 43 46z"/><path class="cls-12" d="M3 22h8.586l4.707 4.707A1 1 0 0 0 17 27a.987.987 0 0 0 .383-.076A1 1 0 0 0 18 26v-4h2v-2h-3a1 1 0 0 0-1 1v2.586l-3.293-3.293A1 1 0 0 0 12 20H3a1 1 0 0 1-1-1V3a1 1 0 0 1 1-1h24a1 1 0 0 1 1 1v7h2V3a3 3 0 0 0-3-3H3a3 3 0 0 0-3 3v16a3 3 0 0 0 3 3z"/><path class="cls-12" d="M4 11a3 3 0 1 0 3-3 3 3 0 0 0-3 3zm4 0a1 1 0 1 1-1-1 1 1 0 0 1 1 1zM12 11a3 3 0 1 0 3-3 3 3 0 0 0-3 3zm4 0a1 1 0 1 1-1-1 1 1 0 0 1 1 1zM23 10a1 1 0 0 1 1 1h2a3 3 0 1 0-3 3v-2a1 1 0 0 1 0-2z"/></g></svg>